<?xml version="1.0" standalone="no"?>
<!DOCTYPE svg PUBLIC "-//W3C//DTD SVG 20010904//EN"
 "http://www.w3.org/TR/2001/REC-SVG-20010904/DTD/svg10.dtd">
<svg version="1.0" xmlns="http://www.w3.org/2000/svg"
 width="186.000000pt" height="186.000000pt" viewBox="0 0 186.000000 186.000000"
 preserveAspectRatio="xMidYMid meet">
<metadata>
Created by potrace 1.11, written by Peter Selinger 2001-2013
</metadata>
<g transform="translate(0.000000,186.000000) scale(0.100000,-0.100000)"
fill="#000000" stroke="none">
<path d="M1690 1737 c-3 -3 -36 -8 -73 -12 -37 -3 -76 -8 -85 -10 -9 -1 -46
-6 -82 -10 -36 -3 -76 -8 -90 -10 -54 -8 -139 -18 -245 -29 -33 -4 -71 -9 -85
-12 -14 -2 -43 -6 -65 -9 -43 -4 -99 -11 -155 -19 -19 -3 -62 -8 -95 -11 -33
-4 -73 -8 -90 -10 -32 -5 -174 -23 -240 -31 -22 -2 -56 -6 -75 -9 -19 -3 -53
-7 -75 -9 -55 -7 -123 -16 -170 -22 -64 -9 -68 -17 -59 -109 11 -118 14 -230
18 -755 2 -261 4 -483 5 -492 0 -10 10 -27 21 -38 20 -20 33 -20 883 -20 936
1 892 -2 902 56 3 16 6 280 8 586 4 540 3 558 -16 575 -17 16 -54 18 -448 18
-236 0 -429 3 -429 7 0 4 8 6 18 6 19 -1 86 6 247 27 61 8 133 17 160 20 100
12 131 15 165 20 52 8 108 14 175 21 99 10 126 30 120 84 -2 14 -6 52 -10 85
-11 95 -21 109 -80 113 -28 2 -53 1 -55 -1z m-767 -384 c-7 -2 -19 -2 -25 0
-7 3 -2 5 12 5 14 0 19 -2 13 -5z"/>
</g>
</svg>
